# xmcd CD database file
#
# Track frame offsets:
#	150
#	7067
#	7745
#	24412
#	40992
#	56875
#	68487
#	79800
#	93032
#	110745
#	123960
#	124652
#	135360
#	144770
#	156490
#	165557
#	174715
#	185112
#	190472
#	192995
#
# Disc length: 2790 seconds
#
# Revision: 0
# Processed by: cddbd v1.5.1PL0 Copyright (c) Steve Scherf et al.
# Submitted via: CDex 1.51
#
DISCID=0c0ae414
DTITLE=難波弘之・他 - トランスフォーマー カーロボット オリジナル・サウンドトラック
DYEAR=1900
DGENRE=アニメ
TTITLE0=和田光司/炎のオーバードライブ〜カーロボットサイバトロン〜(TVサイズ)
TTITLE1=森藤晶司/サブタイトル
TTITLE2=難波弘之/ファイヤーコンボイのテーマ
TTITLE3=林秀行/カーロボ3兄弟のテーマ
TTITLE4=林秀行/難波弘之/チーム新幹線のテーマ
TTITLE5=難波弘之/平和なひととき
TTITLE6=林秀行/戦い
TTITLE7=難波弘之/戦闘
TTITLE8=難波弘之/絶体絶命
TTITLE9=難波弘之/勝利
TTITLE10=森藤晶司/アイキャッチ
TTITLE11=難波弘之/ギガトロンのテーマ
TTITLE12=板倉真一/テストロンガー悪のテーマ
TTITLE13=板倉真一/不利な戦い
TTITLE14=板倉真一/パニック
TTITLE15=森藤晶司/戦い終結
TTITLE16=林秀行/再び…
TTITLE17=西角茉美/マリオネット(TVサイズ)
TTITLE18=板倉真一/予告
TTITLE19=難波弘之/アクション
EXTD=
EXTT0=
EXTT1=
EXTT2=
EXTT3=
EXTT4=
EXTT5=
EXTT6=
EXTT7=
EXTT8=
EXTT9=
EXTT10=
EXTT11=
EXTT12=
EXTT13=
EXTT14=
EXTT15=
EXTT16=
EXTT17=
EXTT18=
EXTT19=
PLAYORDER=
